<mxfile host="Electron" modified="2024-06-08T09:28:27.149Z" agent="Mozilla/5.0 (X11; Linux x86_64) AppleWebKit/537.36 (KHTML, like Gecko) draw.io/24.5.1 Chrome/124.0.6367.207 Electron/30.0.6 Safari/537.36" etag="rlZiu4hDQRdQ_cxHmLio" version="24.5.1" type="device" pages="2">
  <diagram name="Kinematics" id="6yCUUO-wR5nd1XfO6lML">
    <mxGraphModel dx="1367" dy="852" grid="1" gridSize="10" guides="1" tooltips="1" connect="1" arrows="1" fold="1" page="1" pageScale="1" pageWidth="827" pageHeight="1169" math="1" shadow="0">
      <root>
        <mxCell id="0" />
        <mxCell id="1" parent="0" />
        <mxCell id="bmY2wKETBdRpY1Raq0pr-30" value="" style="group" parent="1" vertex="1" connectable="0">
          <mxGeometry x="488.4417391304348" y="150" width="121.87826086956522" height="121.87499999999999" as="geometry" />
        </mxCell>
        <mxCell id="bmY2wKETBdRpY1Raq0pr-27" value="" style="verticalLabelPosition=bottom;verticalAlign=top;html=1;shape=mxgraph.basic.arc;startAngle=0.5618028434922566;endAngle=0.75;rounded=0;align=center;fontFamily=Times New Roman;fontSize=12;fontColor=default;fillColor=none;gradientColor=none;" parent="bmY2wKETBdRpY1Raq0pr-30" vertex="1">
          <mxGeometry width="121.87826086956522" height="121.87499999999999" as="geometry" />
        </mxCell>
        <mxCell id="bmY2wKETBdRpY1Raq0pr-29" value="&lt;font face=&quot;Helvetica&quot; style=&quot;font-size: 13px;&quot;&gt;\(\Theta_2\)&lt;/font&gt;" style="text;html=1;align=center;verticalAlign=middle;whiteSpace=wrap;rounded=0;fontFamily=Times New Roman;fontSize=13;fontColor=default;" parent="bmY2wKETBdRpY1Raq0pr-30" vertex="1">
          <mxGeometry x="3.5551304347826083" y="55.004999999999995" width="29.25078260869565" height="36.56249999999999" as="geometry" />
        </mxCell>
        <mxCell id="bmY2wKETBdRpY1Raq0pr-39" value="&lt;font face=&quot;Helvetica&quot; style=&quot;font-size: 13px;&quot;&gt;\(\alpha\)&lt;/font&gt;" style="text;html=1;align=center;verticalAlign=middle;whiteSpace=wrap;rounded=0;fontFamily=Times New Roman;fontSize=13;fontColor=default;" parent="bmY2wKETBdRpY1Raq0pr-30" vertex="1">
          <mxGeometry x="19.500521739130434" y="75.56249999999999" width="29.25078260869565" height="36.56249999999999" as="geometry" />
        </mxCell>
        <mxCell id="bmY2wKETBdRpY1Raq0pr-41" value="" style="endArrow=none;dashed=1;html=1;strokeWidth=1;rounded=0;dashPattern=1 2;" parent="bmY2wKETBdRpY1Raq0pr-30" edge="1">
          <mxGeometry width="50" height="50" relative="1" as="geometry">
            <mxPoint x="60.914754782608725" y="65.8125" as="sourcePoint" />
            <mxPoint x="60.93913043478261" y="377.81249999999994" as="targetPoint" />
          </mxGeometry>
        </mxCell>
        <mxCell id="bmY2wKETBdRpY1Raq0pr-1" value="" style="endArrow=oval;html=1;rounded=0;endFill=0;strokeWidth=2;startArrow=oval;startFill=0;" parent="1" edge="1">
          <mxGeometry width="50" height="50" relative="1" as="geometry">
            <mxPoint x="378.75" y="332.8125" as="sourcePoint" />
            <mxPoint x="549.375" y="210.9375" as="targetPoint" />
          </mxGeometry>
        </mxCell>
        <mxCell id="bmY2wKETBdRpY1Raq0pr-56" value="\(L_2\)" style="edgeLabel;html=1;align=center;verticalAlign=middle;resizable=0;points=[];fontFamily=Helvetica;fontSize=13;fontColor=default;labelBackgroundColor=default;fillColor=none;gradientColor=none;" parent="bmY2wKETBdRpY1Raq0pr-1" vertex="1" connectable="0">
          <mxGeometry x="0.1426" y="-1" relative="1" as="geometry">
            <mxPoint x="-38" y="4" as="offset" />
          </mxGeometry>
        </mxCell>
        <mxCell id="bmY2wKETBdRpY1Raq0pr-4" value="" style="endArrow=oval;html=1;rounded=0;startArrow=oval;startFill=1;endFill=0;strokeWidth=2;" parent="1" edge="1">
          <mxGeometry width="50" height="50" relative="1" as="geometry">
            <mxPoint x="427.5" y="515.625" as="sourcePoint" />
            <mxPoint x="378.75" y="332.8125" as="targetPoint" />
          </mxGeometry>
        </mxCell>
        <mxCell id="bmY2wKETBdRpY1Raq0pr-50" value="&lt;font style=&quot;font-size: 13px;&quot;&gt;\(L_3\)&lt;/font&gt;" style="edgeLabel;html=1;align=center;verticalAlign=middle;resizable=0;points=[];fontSize=13;" parent="bmY2wKETBdRpY1Raq0pr-4" vertex="1" connectable="0">
          <mxGeometry x="-0.122" relative="1" as="geometry">
            <mxPoint x="-19" as="offset" />
          </mxGeometry>
        </mxCell>
        <mxCell id="bmY2wKETBdRpY1Raq0pr-5" value="" style="endArrow=oval;html=1;rounded=0;endFill=0;startArrow=oval;startFill=0;strokeWidth=2;fontFamily=Times New Roman;fontSize=12;" parent="1" edge="1">
          <mxGeometry width="50" height="50" relative="1" as="geometry">
            <mxPoint x="610.3125" y="210.9375" as="sourcePoint" />
            <mxPoint x="549.375" y="210.9375" as="targetPoint" />
          </mxGeometry>
        </mxCell>
        <mxCell id="bmY2wKETBdRpY1Raq0pr-6" value="" style="endArrow=none;dashed=1;html=1;strokeWidth=1;rounded=0;dashPattern=1 2;" parent="1" edge="1">
          <mxGeometry width="50" height="50" relative="1" as="geometry">
            <mxPoint x="330" y="210.9375" as="sourcePoint" />
            <mxPoint x="549.375" y="210.9375" as="targetPoint" />
          </mxGeometry>
        </mxCell>
        <mxCell id="bmY2wKETBdRpY1Raq0pr-7" value="" style="endArrow=none;dashed=1;html=1;strokeWidth=1;rounded=0;dashPattern=1 2;" parent="1" edge="1">
          <mxGeometry width="50" height="50" relative="1" as="geometry">
            <mxPoint x="610.3125" y="215.8125" as="sourcePoint" />
            <mxPoint x="610.3125" y="527.8125" as="targetPoint" />
          </mxGeometry>
        </mxCell>
        <mxCell id="bmY2wKETBdRpY1Raq0pr-26" value="" style="endArrow=oval;html=1;rounded=0;fontFamily=Times New Roman;fontSize=12;fontColor=default;endFill=0;dashed=1;strokeWidth=2;" parent="1" edge="1">
          <mxGeometry width="50" height="50" relative="1" as="geometry">
            <mxPoint x="427.5" y="515.625" as="sourcePoint" />
            <mxPoint x="549.375" y="210.9375" as="targetPoint" />
          </mxGeometry>
        </mxCell>
        <mxCell id="bmY2wKETBdRpY1Raq0pr-53" value="\(c\)" style="edgeLabel;html=1;align=center;verticalAlign=middle;resizable=0;points=[];fontFamily=Helvetica;fontSize=13;fontColor=default;labelBackgroundColor=default;fillColor=none;gradientColor=none;" parent="bmY2wKETBdRpY1Raq0pr-26" vertex="1" connectable="0">
          <mxGeometry x="-0.0136" y="-1" relative="1" as="geometry">
            <mxPoint x="5" y="10" as="offset" />
          </mxGeometry>
        </mxCell>
        <mxCell id="bmY2wKETBdRpY1Raq0pr-31" value="" style="endArrow=none;dashed=1;html=1;strokeWidth=1;rounded=0;dashPattern=1 2;" parent="1" edge="1">
          <mxGeometry width="50" height="50" relative="1" as="geometry">
            <mxPoint x="330" y="369.375" as="sourcePoint" />
            <mxPoint x="378.75" y="332.8125" as="targetPoint" />
          </mxGeometry>
        </mxCell>
        <mxCell id="bmY2wKETBdRpY1Raq0pr-38" value="" style="group" parent="1" vertex="1" connectable="0">
          <mxGeometry x="339.9975" y="271.875" width="121.87499999999999" height="121.87499999999999" as="geometry" />
        </mxCell>
        <mxCell id="bmY2wKETBdRpY1Raq0pr-33" value="" style="group" parent="bmY2wKETBdRpY1Raq0pr-38" vertex="1" connectable="0">
          <mxGeometry width="121.87499999999999" height="121.87499999999999" as="geometry" />
        </mxCell>
        <mxCell id="bmY2wKETBdRpY1Raq0pr-34" value="" style="verticalLabelPosition=bottom;verticalAlign=top;html=1;shape=mxgraph.basic.arc;startAngle=0.16126457562165722;endAngle=0.638417833217472;rounded=0;align=center;fontFamily=Times New Roman;fontSize=12;fontColor=default;fillColor=none;gradientColor=none;aspect=fixed;" parent="bmY2wKETBdRpY1Raq0pr-33" vertex="1">
          <mxGeometry x="-9.749999999999998" y="18.281249999999996" width="85.31249999999999" height="85.31249999999999" as="geometry" />
        </mxCell>
        <mxCell id="bmY2wKETBdRpY1Raq0pr-35" value="&lt;font style=&quot;font-size: 13px;&quot;&gt;\(\Theta_3\)&lt;/font&gt;" style="text;html=1;align=center;verticalAlign=middle;whiteSpace=wrap;rounded=0;fontFamily=Helvetica;fontSize=13;fontColor=default;" parent="bmY2wKETBdRpY1Raq0pr-33" vertex="1">
          <mxGeometry x="15.843749999999998" y="69.46874999999999" width="29.249999999999996" height="36.56249999999999" as="geometry" />
        </mxCell>
        <mxCell id="bmY2wKETBdRpY1Raq0pr-37" value="&lt;font face=&quot;Helvetica&quot; style=&quot;font-size: 13px;&quot;&gt;\(\beta\)&lt;/font&gt;" style="text;html=1;align=center;verticalAlign=middle;whiteSpace=wrap;rounded=0;fontFamily=Times New Roman;fontSize=13;fontColor=default;" parent="bmY2wKETBdRpY1Raq0pr-33" vertex="1">
          <mxGeometry x="45.09374999999999" y="51.18749999999999" width="20.718749999999996" height="36.56249999999999" as="geometry" />
        </mxCell>
        <mxCell id="bmY2wKETBdRpY1Raq0pr-43" value="" style="endArrow=baseDash;startArrow=baseDash;html=1;rounded=0;startFill=0;endFill=0;" parent="1" edge="1">
          <mxGeometry width="50" height="50" relative="1" as="geometry">
            <mxPoint x="427.5" y="540" as="sourcePoint" />
            <mxPoint x="549.375" y="540" as="targetPoint" />
          </mxGeometry>
        </mxCell>
        <mxCell id="bmY2wKETBdRpY1Raq0pr-54" value="\(d\)" style="edgeLabel;html=1;align=center;verticalAlign=middle;resizable=0;points=[];fontFamily=Helvetica;fontSize=13;fontColor=default;labelBackgroundColor=default;fillColor=none;gradientColor=none;" parent="bmY2wKETBdRpY1Raq0pr-43" vertex="1" connectable="0">
          <mxGeometry x="0.1452" relative="1" as="geometry">
            <mxPoint x="-5" y="-14" as="offset" />
          </mxGeometry>
        </mxCell>
        <mxCell id="bmY2wKETBdRpY1Raq0pr-45" value="" style="endArrow=baseDash;startArrow=baseDash;html=1;rounded=0;startFill=0;endFill=0;" parent="1" edge="1">
          <mxGeometry width="50" height="50" relative="1" as="geometry">
            <mxPoint x="549.375" y="540" as="sourcePoint" />
            <mxPoint x="610.3125" y="540" as="targetPoint" />
          </mxGeometry>
        </mxCell>
        <mxCell id="bmY2wKETBdRpY1Raq0pr-55" value="\(L_1\)" style="edgeLabel;html=1;align=center;verticalAlign=middle;resizable=0;points=[];fontFamily=Helvetica;fontSize=13;fontColor=default;labelBackgroundColor=default;fillColor=none;gradientColor=none;" parent="bmY2wKETBdRpY1Raq0pr-45" vertex="1" connectable="0">
          <mxGeometry x="-0.1777" y="2" relative="1" as="geometry">
            <mxPoint x="4" y="-12" as="offset" />
          </mxGeometry>
        </mxCell>
      </root>
    </mxGraphModel>
  </diagram>
  <diagram id="yv7AE3jx4Kbf2A2gWBoU" name="MotionSystem">
    <mxGraphModel dx="781" dy="487" grid="1" gridSize="10" guides="1" tooltips="1" connect="1" arrows="1" fold="1" page="1" pageScale="1" pageWidth="827" pageHeight="1169" math="0" shadow="0">
      <root>
        <mxCell id="0" />
        <mxCell id="1" parent="0" />
        <mxCell id="QZhh69avEHoih6taFEDK-1" value="" style="rounded=1;whiteSpace=wrap;html=1;" vertex="1" parent="1">
          <mxGeometry x="223.75" y="150" width="206.25" height="220" as="geometry" />
        </mxCell>
        <mxCell id="QZhh69avEHoih6taFEDK-7" value="" style="edgeStyle=orthogonalEdgeStyle;rounded=0;orthogonalLoop=1;jettySize=auto;html=1;fontFamily=Times New Roman;fontSize=13;fontColor=default;" edge="1" parent="1">
          <mxGeometry relative="1" as="geometry">
            <mxPoint x="320.0000000000001" y="240" as="sourcePoint" />
            <mxPoint x="320.0000000000001" y="280" as="targetPoint" />
          </mxGeometry>
        </mxCell>
        <mxCell id="QZhh69avEHoih6taFEDK-8" value="" style="edgeLabel;html=1;align=center;verticalAlign=middle;resizable=0;points=[];strokeColor=default;fontFamily=Times New Roman;fontSize=13;fontColor=default;fillColor=default;" vertex="1" connectable="0" parent="QZhh69avEHoih6taFEDK-7">
          <mxGeometry x="-0.381" relative="1" as="geometry">
            <mxPoint x="33" y="4" as="offset" />
          </mxGeometry>
        </mxCell>
        <mxCell id="QZhh69avEHoih6taFEDK-19" value="&lt;font style=&quot;font-size: 12px;&quot;&gt;Movement&lt;/font&gt;&lt;div&gt;&lt;font style=&quot;font-size: 12px;&quot;&gt;Commands&lt;/font&gt;&lt;/div&gt;" style="edgeLabel;html=1;align=center;verticalAlign=middle;resizable=0;points=[];strokeColor=default;fontFamily=Times New Roman;fontSize=13;fontColor=default;fillColor=default;" vertex="1" connectable="0" parent="QZhh69avEHoih6taFEDK-7">
          <mxGeometry x="-0.3714" y="-1" relative="1" as="geometry">
            <mxPoint x="-34" y="7" as="offset" />
          </mxGeometry>
        </mxCell>
        <mxCell id="QZhh69avEHoih6taFEDK-2" value="Motion Controller&lt;div&gt;Node&lt;/div&gt;" style="shape=parallelogram;perimeter=parallelogramPerimeter;whiteSpace=wrap;html=1;fixedSize=1;fontFamily=Times New Roman;fontSize=13;" vertex="1" parent="1">
          <mxGeometry x="247.5" y="170" width="162.5" height="70" as="geometry" />
        </mxCell>
        <mxCell id="QZhh69avEHoih6taFEDK-20" style="edgeStyle=orthogonalEdgeStyle;rounded=0;orthogonalLoop=1;jettySize=auto;html=1;exitX=0.75;exitY=0;exitDx=0;exitDy=0;entryX=0.75;entryY=1;entryDx=0;entryDy=0;fontFamily=Times New Roman;fontSize=13;fontColor=default;" edge="1" parent="1">
          <mxGeometry relative="1" as="geometry">
            <mxPoint x="339.9974999999999" y="280" as="sourcePoint" />
            <mxPoint x="340.3050000000001" y="240" as="targetPoint" />
          </mxGeometry>
        </mxCell>
        <mxCell id="QZhh69avEHoih6taFEDK-21" value="&lt;font style=&quot;font-size: 12px;&quot;&gt;Foot Positions,&lt;/font&gt;&lt;div&gt;&lt;font style=&quot;font-size: 12px;&quot;&gt;Leg States&lt;/font&gt;&lt;/div&gt;" style="edgeLabel;html=1;align=center;verticalAlign=middle;resizable=0;points=[];strokeColor=default;fontFamily=Times New Roman;fontSize=13;fontColor=default;fillColor=default;" vertex="1" connectable="0" parent="QZhh69avEHoih6taFEDK-20">
          <mxGeometry x="-0.0071" y="1" relative="1" as="geometry">
            <mxPoint x="43" y="1" as="offset" />
          </mxGeometry>
        </mxCell>
        <mxCell id="QZhh69avEHoih6taFEDK-3" value="Gait&amp;nbsp;&lt;span style=&quot;background-color: initial;&quot;&gt;State&amp;nbsp;&lt;/span&gt;&lt;span style=&quot;background-color: initial;&quot;&gt;Machine&lt;/span&gt;&lt;div&gt;&lt;span style=&quot;background-color: initial;&quot;&gt;Node&lt;/span&gt;&lt;/div&gt;" style="shape=parallelogram;perimeter=parallelogramPerimeter;whiteSpace=wrap;html=1;fixedSize=1;strokeColor=default;align=center;verticalAlign=middle;fontFamily=Times New Roman;fontSize=13;fontColor=default;fillColor=default;" vertex="1" parent="1">
          <mxGeometry x="248.13" y="280" width="161.25" height="70" as="geometry" />
        </mxCell>
        <mxCell id="QZhh69avEHoih6taFEDK-4" value="" style="endArrow=classic;html=1;rounded=0;fontFamily=Times New Roman;fontSize=13;fontColor=default;entryX=0;entryY=0.5;entryDx=0;entryDy=0;exitX=1;exitY=0.5;exitDx=0;exitDy=0;" edge="1" parent="1" source="QZhh69avEHoih6taFEDK-6" target="QZhh69avEHoih6taFEDK-2">
          <mxGeometry width="50" height="50" relative="1" as="geometry">
            <mxPoint x="190" y="205" as="sourcePoint" />
            <mxPoint x="200" y="200" as="targetPoint" />
          </mxGeometry>
        </mxCell>
        <mxCell id="QZhh69avEHoih6taFEDK-6" value="Robot Movement Commands&lt;div&gt;&lt;br&gt;&lt;/div&gt;&lt;div&gt;(Direction, Speed, etc.)&lt;/div&gt;" style="rounded=0;whiteSpace=wrap;html=1;strokeColor=default;align=center;verticalAlign=middle;fontFamily=Times New Roman;fontSize=13;fontColor=default;fillColor=default;" vertex="1" parent="1">
          <mxGeometry x="60" y="167.5" width="140" height="75" as="geometry" />
        </mxCell>
        <mxCell id="QZhh69avEHoih6taFEDK-9" value="Jetson Nano" style="text;html=1;align=center;verticalAlign=middle;whiteSpace=wrap;rounded=0;fontFamily=Times New Roman;fontSize=13;fontColor=default;" vertex="1" parent="1">
          <mxGeometry x="290.31" y="120" width="76.88" height="30" as="geometry" />
        </mxCell>
        <mxCell id="QZhh69avEHoih6taFEDK-10" value="Command Input" style="text;html=1;align=center;verticalAlign=middle;whiteSpace=wrap;rounded=0;fontFamily=Times New Roman;fontSize=13;fontColor=default;" vertex="1" parent="1">
          <mxGeometry x="85" y="137.5" width="90" height="30" as="geometry" />
        </mxCell>
        <mxCell id="QZhh69avEHoih6taFEDK-11" value="" style="rounded=1;whiteSpace=wrap;html=1;" vertex="1" parent="1">
          <mxGeometry x="516.25" y="150" width="190" height="120" as="geometry" />
        </mxCell>
        <mxCell id="QZhh69avEHoih6taFEDK-12" value="Teensy 2.0" style="text;html=1;align=center;verticalAlign=middle;whiteSpace=wrap;rounded=0;fontFamily=Times New Roman;fontSize=13;fontColor=default;" vertex="1" parent="1">
          <mxGeometry x="564.9200000000001" y="120" width="92.66" height="30" as="geometry" />
        </mxCell>
        <mxCell id="QZhh69avEHoih6taFEDK-15" value="Servo Controller&lt;div&gt;Node&lt;/div&gt;" style="shape=parallelogram;perimeter=parallelogramPerimeter;whiteSpace=wrap;html=1;fixedSize=1;fontFamily=Times New Roman;fontSize=13;" vertex="1" parent="1">
          <mxGeometry x="530" y="170" width="162.5" height="70" as="geometry" />
        </mxCell>
        <mxCell id="QZhh69avEHoih6taFEDK-22" value="" style="edgeStyle=orthogonalEdgeStyle;rounded=0;orthogonalLoop=1;jettySize=auto;html=1;fontFamily=Times New Roman;fontSize=13;fontColor=default;" edge="1" parent="1" source="QZhh69avEHoih6taFEDK-2" target="QZhh69avEHoih6taFEDK-15">
          <mxGeometry relative="1" as="geometry" />
        </mxCell>
        <mxCell id="QZhh69avEHoih6taFEDK-23" value="&lt;font style=&quot;font-size: 12px;&quot;&gt;Foot Positions,&lt;/font&gt;&lt;div style=&quot;font-size: 12px;&quot;&gt;&lt;font style=&quot;font-size: 12px;&quot;&gt;Leg States&lt;/font&gt;&lt;/div&gt;" style="edgeLabel;html=1;align=center;verticalAlign=middle;resizable=0;points=[];strokeColor=default;fontFamily=Times New Roman;fontSize=13;fontColor=default;fillColor=default;" vertex="1" connectable="0" parent="QZhh69avEHoih6taFEDK-22">
          <mxGeometry x="-0.2207" y="-2" relative="1" as="geometry">
            <mxPoint x="16" y="-23" as="offset" />
          </mxGeometry>
        </mxCell>
      </root>
    </mxGraphModel>
  </diagram>
</mxfile>
